# xmcd
#
# Track frame offsets: 
#        182
#        25020
#        60957
#        84690
#        101035
#        123180
#        144927
#        164935
#        200225
#
# Disc length: 3145 seconds
#
# Revision: 0
# Processed by: cddbd v1.5.2PL0 Copyright (c) Steve Scherf et al.
# Submitted via: ExactAudioCopy v0.95b4
#
DISCID=7a0c4709
DTITLE=Big Walter Horton - Little Boy Blue
DYEAR=1980
DGENRE=Blues
TTITLE0=I Cry For You
TTITLE1=Lord Knows I Tried
TTITLE2=Counrty Girl
TTITLE3=Walter's Shuffle
TTITLE4=Little Boy Blue
TTITLE5=It's Not Easy
TTITLE6=Two Old Maids
TTITLE7=What's On Your Worried Mind
TTITLE8=Walter's Swing
EXTD=
EXTT0=
EXTT1=
EXTT2=
EXTT3=
EXTT4=
EXTT5=
EXTT6=
EXTT7=
EXTT8=
PLAYORDER=
